<?xml version="1.0" encoding="UTF-8" standalone="no"?>
<!-- Created with Inkscape (http://www.inkscape.org/) -->

<svg
   xmlns:dc="http://purl.org/dc/elements/1.1/"
   xmlns:cc="http://creativecommons.org/ns#"
   xmlns:rdf="http://www.w3.org/1999/02/22-rdf-syntax-ns#"
   xmlns:svg="http://www.w3.org/2000/svg"
   xmlns="http://www.w3.org/2000/svg"
   xmlns:sodipodi="http://sodipodi.sourceforge.net/DTD/sodipodi-0.dtd"
   xmlns:inkscape="http://www.inkscape.org/namespaces/inkscape"
   width="48"
   height="48"
   id="svg4165"
   version="1.1"
   inkscape:version="0.91 r13725"
   viewBox="0 0 48 48"
   sodipodi:docname="progress2.svg">
  <defs
     id="defs4167" />
  <sodipodi:namedview
     id="base"
     pagecolor="#ffffff"
     bordercolor="#666666"
     borderopacity="1.0"
     inkscape:pageopacity="0.0"
     inkscape:pageshadow="2"
     inkscape:zoom="7"
     inkscape:cx="57.442475"
     inkscape:cy="2.3425674"
     inkscape:current-layer="layer1"
     showgrid="true"
     inkscape:grid-bbox="true"
     inkscape:document-units="px"
     inkscape:window-width="1916"
     inkscape:window-height="1118"
     inkscape:window-x="0"
     inkscape:window-y="80"
     inkscape:window-maximized="0" />
  <metadata
     id="metadata4170">
    <rdf:RDF>
      <cc:Work
         rdf:about="">
        <dc:format>image/svg+xml</dc:format>
        <dc:type
           rdf:resource="http://purl.org/dc/dcmitype/StillImage" />
        <dc:title></dc:title>
      </cc:Work>
    </rdf:RDF>
  </metadata>
  <g
     id="layer1"
     inkscape:label="Layer 1"
     inkscape:groupmode="layer">
    <g
       id="g4863"
       transform="translate(5.1428572,5.9047623)">
      <path
         inkscape:connector-curvature="0"
         id="path4752"
         d="m 5.6627791,9.5406804 a 4.342857,4.342857 0 0 1 -3.91e-4,-0.258203 4.342857,4.342857 0 0 0 -0.00508,0.146094 4.342857,4.342857 0 0 0 0.0055,0.112109 z"
         style="opacity:1;fill:none;fill-opacity:1;fill-rule:evenodd;stroke:#000000;stroke-width:0.38;stroke-linejoin:round;stroke-miterlimit:4;stroke-dasharray:none;stroke-opacity:1" />
      <path
         inkscape:connector-curvature="0"
         id="path4750"
         d="m 10.203404,13.761383 a 4.342857,4.342857 0 0 1 -0.2144529,0.0098 4.342857,4.342857 0 0 0 0.01133,3.91e-4 4.342857,4.342857 0 0 0 0.203125,-0.01016 z"
         style="opacity:1;fill:none;fill-opacity:1;fill-rule:evenodd;stroke:#000000;stroke-width:0.38;stroke-linejoin:round;stroke-miterlimit:4;stroke-dasharray:none;stroke-opacity:1" />
      <path
         inkscape:connector-curvature="0"
         id="path4748"
         d="m 10.032701,5.0867744 -0.0066,0.885938 a 3.457143,3.457143 0 0 1 3.431209,3.455859 3.457143,3.457143 0 0 1 -0.990234,2.4175776 l 0.633984,0.621484 a 4.342857,4.342857 0 0 0 1.242188,-3.0390616 4.342857,4.342857 0 0 0 -4.310547,-4.341797 z"
         style="opacity:1;fill:none;fill-opacity:1;fill-rule:evenodd;stroke:#000000;stroke-width:0.38;stroke-linejoin:round;stroke-miterlimit:4;stroke-dasharray:none;stroke-opacity:1" />
      <path
         inkscape:connector-curvature="0"
         id="path4746"
         d="m 10.011216,5.0859934 a 4.342857,4.342857 0 0 0 -0.01875,0 4.342857,4.342857 0 0 0 -0.218359,0.01094 4.342857,4.342857 0 0 0 -0.221094,0.0125 4.342857,4.342857 0 0 0 -0.244922,0.03711 4.342857,4.342857 0 0 0 -0.184375,0.0293 4.342857,4.342857 0 0 0 -0.209765,0.05352 4.342857,4.342857 0 0 0 -0.214063,0.05625 4.342857,4.342857 0 0 0 -0.201172,0.07344 4.342857,4.342857 0 0 0 -0.202343,0.07578 4.342857,4.342857 0 0 0 -0.2,0.09648 4.342857,4.342857 0 0 0 -0.192969,0.09492 4.342857,4.342857 0 0 0 -0.164453,0.100782 4.342857,4.342857 0 0 0 -0.20586,0.128515 4.342857,4.342857 0 0 0 -0.146093,0.110938 4.342857,4.342857 0 0 0 -0.197656,0.152343 4.342857,4.342857 0 0 0 -0.152344,0.142188 4.342857,4.342857 0 0 0 -0.1625,0.153516 4.342857,4.342857 0 0 0 -0.152344,0.173437 4.342857,4.342857 0 0 0 -0.132031,0.152344 4.342857,4.342857 0 0 0 -0.135938,0.190625 4.342857,4.342857 0 0 0 -0.116015,0.164844 4.342857,4.342857 0 0 0 -0.110938,0.192968 4.342857,4.342857 0 0 0 -0.103515,0.183985 4.342857,4.342857 0 0 0 -0.09375,0.209765 4.342857,4.342857 0 0 0 -0.08203,0.186328 4.342857,4.342857 0 0 0 -0.06523,0.196094 4.342857,4.342857 0 0 0 -0.07148,0.220703 4.342857,4.342857 0 0 0 -0.05195,0.232813 4.342857,4.342857 0 0 0 -0.04453,0.221094 4.342857,4.342857 0 0 0 -0.02578,0.212109 4.342857,4.342857 0 0 0 -0.02266,0.228125 4.342857,4.342857 0 0 0 -0.0039,0.102734 4.342857,4.342857 0 0 0 3.91e-4,0.258203 4.342857,4.342857 0 0 0 0.01133,0.217188 4.342857,4.342857 0 0 0 0.02109,0.210937 4.342857,4.342857 0 0 0 0.03359,0.2214846 4.342857,4.342857 0 0 0 0.04297,0.210937 4.342857,4.342857 0 0 0 0.05156,0.202344 4.342857,4.342857 0 0 0 0.06836,0.219922 4.342857,4.342857 0 0 0 0.07148,0.195312 4.342857,4.342857 0 0 0 0.08555,0.201172 4.342857,4.342857 0 0 0 0.09375,0.194532 4.342857,4.342857 0 0 0 0.10625,0.19375 4.342857,4.342857 0 0 0 0.110156,0.179687 4.342857,4.342857 0 0 0 0.126562,0.184766 4.342857,4.342857 0 0 0 0.127735,0.167578 4.342857,4.342857 0 0 0 0.142187,0.168359 4.342857,4.342857 0 0 0 0.148438,0.158984 4.342857,4.342857 0 0 0 0.152734,0.148438 4.342857,4.342857 0 0 0 0.164453,0.144531 4.342857,4.342857 0 0 0 0.173438,0.136719 4.342857,4.342857 0 0 0 0.171875,0.123047 4.342857,4.342857 0 0 0 0.182812,0.117187 4.342857,4.342857 0 0 0 0.217969,0.125 4.342857,4.342857 0 0 0 0.195703,0.0957 4.342857,4.342857 0 0 0 0.195703,0.0875 4.342857,4.342857 0 0 0 0.208594,0.07734 4.342857,4.342857 0 0 0 0.198437,0.06602 4.342857,4.342857 0 0 0 0.217188,0.05664 4.342857,4.342857 0 0 0 0.207422,0.04648 4.342857,4.342857 0 0 0 0.214843,0.0332 4.342857,4.342857 0 0 0 0.214844,0.02617 4.342857,4.342857 0 0 0 0.323828,0.01797 4.342857,4.342857 0 0 0 0.04531,0.0016 4.342857,4.342857 0 0 0 0.214453,-0.0098 4.342857,4.342857 0 0 0 0.220312,-0.01133 4.342857,4.342857 0 0 0 0.215625,-0.03125 4.342857,4.342857 0 0 0 0.214063,-0.03242 4.342857,4.342857 0 0 0 0.259375,-0.06523 4.342857,4.342857 0 0 0 0.157812,-0.03984 4.342857,4.342857 0 0 0 0.221094,-0.07969 4.342857,4.342857 0 0 0 0.192578,-0.07031 4.342857,4.342857 0 0 0 0.18086,-0.08672 4.342857,4.342857 0 0 0 0.20664,-0.09961 4.342857,4.342857 0 0 0 0.247266,-0.15 4.342857,4.342857 0 0 0 0.121484,-0.07461 4.342857,4.342857 0 0 0 0.226172,-0.170313 4.342857,4.342857 0 0 0 0.121485,-0.09219 4.342857,4.342857 0 0 0 0.174609,-0.160938 4.342857,4.342857 0 0 0 0.138281,-0.129297 l -0.633992,-0.621484 a 3.457143,3.457143 0 0 1 -2.466797,1.039453 3.457143,3.457143 0 0 1 -3.457031,-3.4570306 3.457143,3.457143 0 0 1 3.457031,-3.457031 3.457143,3.457143 0 0 1 0.02578,0.0012 l 0.0066,-0.885938 a 4.342857,4.342857 0 0 0 -0.02148,-7.81e-4 z"
         style="opacity:1;fill:#000000;fill-opacity:1;fill-rule:evenodd;stroke:#000000;stroke-width:0.38;stroke-linejoin:round;stroke-miterlimit:4;stroke-dasharray:none;stroke-opacity:1" />
      <path
         inkscape:connector-curvature="0"
         id="path4722"
         d="m 10.000279,5.0856024 a 4.342857,4.342857 0 0 0 -0.0078,3.91e-4 4.342857,4.342857 0 0 1 0.01875,0 4.342857,4.342857 0 0 0 -0.01094,-3.91e-4 z"
         style="opacity:1;fill:none;fill-opacity:1;fill-rule:evenodd;stroke:#000000;stroke-width:0.38;stroke-linejoin:round;stroke-miterlimit:4;stroke-dasharray:none;stroke-opacity:1" />
    </g>
    <g
       id="g4870"
       transform="translate(5.1428572,18)">
      <path
         style="opacity:1;fill:none;fill-opacity:1;fill-rule:evenodd;stroke:#000000;stroke-width:0.38;stroke-linejoin:round;stroke-miterlimit:4;stroke-dasharray:none;stroke-opacity:1"
         d="m 5.6627791,9.5406804 a 4.342857,4.342857 0 0 1 -3.91e-4,-0.258203 4.342857,4.342857 0 0 0 -0.00508,0.146094 4.342857,4.342857 0 0 0 0.0055,0.112109 z"
         id="path4872"
         inkscape:connector-curvature="0" />
      <path
         style="opacity:1;fill:none;fill-opacity:1;fill-rule:evenodd;stroke:#000000;stroke-width:0.38;stroke-linejoin:round;stroke-miterlimit:4;stroke-dasharray:none;stroke-opacity:1"
         d="m 10.203404,13.761383 a 4.342857,4.342857 0 0 1 -0.2144529,0.0098 4.342857,4.342857 0 0 0 0.01133,3.91e-4 4.342857,4.342857 0 0 0 0.203125,-0.01016 z"
         id="path4874"
         inkscape:connector-curvature="0" />
      <path
         style="opacity:1;fill:none;fill-opacity:1;fill-rule:evenodd;stroke:#000000;stroke-width:0.38;stroke-linejoin:round;stroke-miterlimit:4;stroke-dasharray:none;stroke-opacity:1"
         d="m 10.032701,5.0867744 -0.0066,0.885938 a 3.457143,3.457143 0 0 1 3.431209,3.455859 3.457143,3.457143 0 0 1 -0.990234,2.4175776 l 0.633984,0.621484 a 4.342857,4.342857 0 0 0 1.242188,-3.0390616 4.342857,4.342857 0 0 0 -4.310547,-4.341797 z"
         id="path4876"
         inkscape:connector-curvature="0" />
      <path
         style="opacity:1;fill:#000000;fill-opacity:1;fill-rule:evenodd;stroke:#000000;stroke-width:0.38;stroke-linejoin:round;stroke-miterlimit:4;stroke-dasharray:none;stroke-opacity:1"
         d="m 10.011216,5.0859934 a 4.342857,4.342857 0 0 0 -0.01875,0 4.342857,4.342857 0 0 0 -0.218359,0.01094 4.342857,4.342857 0 0 0 -0.221094,0.0125 4.342857,4.342857 0 0 0 -0.244922,0.03711 4.342857,4.342857 0 0 0 -0.184375,0.0293 4.342857,4.342857 0 0 0 -0.209765,0.05352 4.342857,4.342857 0 0 0 -0.214063,0.05625 4.342857,4.342857 0 0 0 -0.201172,0.07344 4.342857,4.342857 0 0 0 -0.202343,0.07578 4.342857,4.342857 0 0 0 -0.2,0.09648 4.342857,4.342857 0 0 0 -0.192969,0.09492 4.342857,4.342857 0 0 0 -0.164453,0.100782 4.342857,4.342857 0 0 0 -0.20586,0.128515 4.342857,4.342857 0 0 0 -0.146093,0.110938 4.342857,4.342857 0 0 0 -0.197656,0.152343 4.342857,4.342857 0 0 0 -0.152344,0.142188 4.342857,4.342857 0 0 0 -0.1625,0.153516 4.342857,4.342857 0 0 0 -0.152344,0.173437 4.342857,4.342857 0 0 0 -0.132031,0.152344 4.342857,4.342857 0 0 0 -0.135938,0.190625 4.342857,4.342857 0 0 0 -0.116015,0.164844 4.342857,4.342857 0 0 0 -0.110938,0.192968 4.342857,4.342857 0 0 0 -0.103515,0.183985 4.342857,4.342857 0 0 0 -0.09375,0.209765 4.342857,4.342857 0 0 0 -0.08203,0.186328 4.342857,4.342857 0 0 0 -0.06523,0.196094 4.342857,4.342857 0 0 0 -0.07148,0.220703 4.342857,4.342857 0 0 0 -0.05195,0.232813 4.342857,4.342857 0 0 0 -0.04453,0.221094 4.342857,4.342857 0 0 0 -0.02578,0.212109 4.342857,4.342857 0 0 0 -0.02266,0.228125 4.342857,4.342857 0 0 0 -0.0039,0.102734 4.342857,4.342857 0 0 0 3.91e-4,0.258203 4.342857,4.342857 0 0 0 0.01133,0.217188 4.342857,4.342857 0 0 0 0.02109,0.210937 4.342857,4.342857 0 0 0 0.03359,0.2214846 4.342857,4.342857 0 0 0 0.04297,0.210937 4.342857,4.342857 0 0 0 0.05156,0.202344 4.342857,4.342857 0 0 0 0.06836,0.219922 4.342857,4.342857 0 0 0 0.07148,0.195312 4.342857,4.342857 0 0 0 0.08555,0.201172 4.342857,4.342857 0 0 0 0.09375,0.194532 4.342857,4.342857 0 0 0 0.10625,0.19375 4.342857,4.342857 0 0 0 0.110156,0.179687 4.342857,4.342857 0 0 0 0.126562,0.184766 4.342857,4.342857 0 0 0 0.127735,0.167578 4.342857,4.342857 0 0 0 0.142187,0.168359 4.342857,4.342857 0 0 0 0.148438,0.158984 4.342857,4.342857 0 0 0 0.152734,0.148438 4.342857,4.342857 0 0 0 0.164453,0.144531 4.342857,4.342857 0 0 0 0.173438,0.136719 4.342857,4.342857 0 0 0 0.171875,0.123047 4.342857,4.342857 0 0 0 0.182812,0.117187 4.342857,4.342857 0 0 0 0.217969,0.125 4.342857,4.342857 0 0 0 0.195703,0.0957 4.342857,4.342857 0 0 0 0.195703,0.0875 4.342857,4.342857 0 0 0 0.208594,0.07734 4.342857,4.342857 0 0 0 0.198437,0.06602 4.342857,4.342857 0 0 0 0.217188,0.05664 4.342857,4.342857 0 0 0 0.207422,0.04648 4.342857,4.342857 0 0 0 0.214843,0.0332 4.342857,4.342857 0 0 0 0.214844,0.02617 4.342857,4.342857 0 0 0 0.323828,0.01797 4.342857,4.342857 0 0 0 0.04531,0.0016 4.342857,4.342857 0 0 0 0.214453,-0.0098 4.342857,4.342857 0 0 0 0.220312,-0.01133 4.342857,4.342857 0 0 0 0.215625,-0.03125 4.342857,4.342857 0 0 0 0.214063,-0.03242 4.342857,4.342857 0 0 0 0.259375,-0.06523 4.342857,4.342857 0 0 0 0.157812,-0.03984 4.342857,4.342857 0 0 0 0.221094,-0.07969 4.342857,4.342857 0 0 0 0.192578,-0.07031 4.342857,4.342857 0 0 0 0.18086,-0.08672 4.342857,4.342857 0 0 0 0.20664,-0.09961 4.342857,4.342857 0 0 0 0.247266,-0.15 4.342857,4.342857 0 0 0 0.121484,-0.07461 4.342857,4.342857 0 0 0 0.226172,-0.170313 4.342857,4.342857 0 0 0 0.121485,-0.09219 4.342857,4.342857 0 0 0 0.174609,-0.160938 4.342857,4.342857 0 0 0 0.138281,-0.129297 l -0.633992,-0.621484 a 3.457143,3.457143 0 0 1 -2.466797,1.039453 3.457143,3.457143 0 0 1 -3.457031,-3.4570306 3.457143,3.457143 0 0 1 3.457031,-3.457031 3.457143,3.457143 0 0 1 0.02578,0.0012 l 0.0066,-0.885938 a 4.342857,4.342857 0 0 0 -0.02148,-7.81e-4 z"
         id="path4878"
         inkscape:connector-curvature="0" />
      <path
         style="opacity:1;fill:none;fill-opacity:1;fill-rule:evenodd;stroke:#000000;stroke-width:0.38;stroke-linejoin:round;stroke-miterlimit:4;stroke-dasharray:none;stroke-opacity:1"
         d="m 10.000279,5.0856024 a 4.342857,4.342857 0 0 0 -0.0078,3.91e-4 4.342857,4.342857 0 0 1 0.01875,0 4.342857,4.342857 0 0 0 -0.01094,-3.91e-4 z"
         id="path4880"
         inkscape:connector-curvature="0" />
    </g>
    <g
       id="g4882"
       transform="translate(21.769248,5.9047623)">
      <path
         inkscape:connector-curvature="0"
         id="path4884"
         d="m 5.6627791,9.5406804 a 4.342857,4.342857 0 0 1 -3.91e-4,-0.258203 4.342857,4.342857 0 0 0 -0.00508,0.146094 4.342857,4.342857 0 0 0 0.0055,0.112109 z"
         style="opacity:1;fill:none;fill-opacity:1;fill-rule:evenodd;stroke:#000000;stroke-width:0.38;stroke-linejoin:round;stroke-miterlimit:4;stroke-dasharray:none;stroke-opacity:1" />
      <path
         inkscape:connector-curvature="0"
         id="path4886"
         d="m 10.203404,13.761383 a 4.342857,4.342857 0 0 1 -0.2144529,0.0098 4.342857,4.342857 0 0 0 0.01133,3.91e-4 4.342857,4.342857 0 0 0 0.203125,-0.01016 z"
         style="opacity:1;fill:none;fill-opacity:1;fill-rule:evenodd;stroke:#000000;stroke-width:0.38;stroke-linejoin:round;stroke-miterlimit:4;stroke-dasharray:none;stroke-opacity:1" />
      <path
         inkscape:connector-curvature="0"
         id="path4888"
         d="m 10.032701,5.0867744 -0.0066,0.885938 a 3.457143,3.457143 0 0 1 3.431209,3.455859 3.457143,3.457143 0 0 1 -0.990234,2.4175776 l 0.633984,0.621484 a 4.342857,4.342857 0 0 0 1.242188,-3.0390616 4.342857,4.342857 0 0 0 -4.310547,-4.341797 z"
         style="opacity:1;fill:none;fill-opacity:1;fill-rule:evenodd;stroke:#000000;stroke-width:0.38;stroke-linejoin:round;stroke-miterlimit:4;stroke-dasharray:none;stroke-opacity:1" />
      <path
         inkscape:connector-curvature="0"
         id="path4890"
         d="m 10.011216,5.0859934 a 4.342857,4.342857 0 0 0 -0.01875,0 4.342857,4.342857 0 0 0 -0.218359,0.01094 4.342857,4.342857 0 0 0 -0.221094,0.0125 4.342857,4.342857 0 0 0 -0.244922,0.03711 4.342857,4.342857 0 0 0 -0.184375,0.0293 4.342857,4.342857 0 0 0 -0.209765,0.05352 4.342857,4.342857 0 0 0 -0.214063,0.05625 4.342857,4.342857 0 0 0 -0.201172,0.07344 4.342857,4.342857 0 0 0 -0.202343,0.07578 4.342857,4.342857 0 0 0 -0.2,0.09648 4.342857,4.342857 0 0 0 -0.192969,0.09492 4.342857,4.342857 0 0 0 -0.164453,0.100782 4.342857,4.342857 0 0 0 -0.20586,0.128515 4.342857,4.342857 0 0 0 -0.146093,0.110938 4.342857,4.342857 0 0 0 -0.197656,0.152343 4.342857,4.342857 0 0 0 -0.152344,0.142188 4.342857,4.342857 0 0 0 -0.1625,0.153516 4.342857,4.342857 0 0 0 -0.152344,0.173437 4.342857,4.342857 0 0 0 -0.132031,0.152344 4.342857,4.342857 0 0 0 -0.135938,0.190625 4.342857,4.342857 0 0 0 -0.116015,0.164844 4.342857,4.342857 0 0 0 -0.110938,0.192968 4.342857,4.342857 0 0 0 -0.103515,0.183985 4.342857,4.342857 0 0 0 -0.09375,0.209765 4.342857,4.342857 0 0 0 -0.08203,0.186328 4.342857,4.342857 0 0 0 -0.06523,0.196094 4.342857,4.342857 0 0 0 -0.07148,0.220703 4.342857,4.342857 0 0 0 -0.05195,0.232813 4.342857,4.342857 0 0 0 -0.04453,0.221094 4.342857,4.342857 0 0 0 -0.02578,0.212109 4.342857,4.342857 0 0 0 -0.02266,0.228125 4.342857,4.342857 0 0 0 -0.0039,0.102734 4.342857,4.342857 0 0 0 3.91e-4,0.258203 4.342857,4.342857 0 0 0 0.01133,0.217188 4.342857,4.342857 0 0 0 0.02109,0.210937 4.342857,4.342857 0 0 0 0.03359,0.2214846 4.342857,4.342857 0 0 0 0.04297,0.210937 4.342857,4.342857 0 0 0 0.05156,0.202344 4.342857,4.342857 0 0 0 0.06836,0.219922 4.342857,4.342857 0 0 0 0.07148,0.195312 4.342857,4.342857 0 0 0 0.08555,0.201172 4.342857,4.342857 0 0 0 0.09375,0.194532 4.342857,4.342857 0 0 0 0.10625,0.19375 4.342857,4.342857 0 0 0 0.110156,0.179687 4.342857,4.342857 0 0 0 0.126562,0.184766 4.342857,4.342857 0 0 0 0.127735,0.167578 4.342857,4.342857 0 0 0 0.142187,0.168359 4.342857,4.342857 0 0 0 0.148438,0.158984 4.342857,4.342857 0 0 0 0.152734,0.148438 4.342857,4.342857 0 0 0 0.164453,0.144531 4.342857,4.342857 0 0 0 0.173438,0.136719 4.342857,4.342857 0 0 0 0.171875,0.123047 4.342857,4.342857 0 0 0 0.182812,0.117187 4.342857,4.342857 0 0 0 0.217969,0.125 4.342857,4.342857 0 0 0 0.195703,0.0957 4.342857,4.342857 0 0 0 0.195703,0.0875 4.342857,4.342857 0 0 0 0.208594,0.07734 4.342857,4.342857 0 0 0 0.198437,0.06602 4.342857,4.342857 0 0 0 0.217188,0.05664 4.342857,4.342857 0 0 0 0.207422,0.04648 4.342857,4.342857 0 0 0 0.214843,0.0332 4.342857,4.342857 0 0 0 0.214844,0.02617 4.342857,4.342857 0 0 0 0.323828,0.01797 4.342857,4.342857 0 0 0 0.04531,0.0016 4.342857,4.342857 0 0 0 0.214453,-0.0098 4.342857,4.342857 0 0 0 0.220312,-0.01133 4.342857,4.342857 0 0 0 0.215625,-0.03125 4.342857,4.342857 0 0 0 0.214063,-0.03242 4.342857,4.342857 0 0 0 0.259375,-0.06523 4.342857,4.342857 0 0 0 0.157812,-0.03984 4.342857,4.342857 0 0 0 0.221094,-0.07969 4.342857,4.342857 0 0 0 0.192578,-0.07031 4.342857,4.342857 0 0 0 0.18086,-0.08672 4.342857,4.342857 0 0 0 0.20664,-0.09961 4.342857,4.342857 0 0 0 0.247266,-0.15 4.342857,4.342857 0 0 0 0.121484,-0.07461 4.342857,4.342857 0 0 0 0.226172,-0.170313 4.342857,4.342857 0 0 0 0.121485,-0.09219 4.342857,4.342857 0 0 0 0.174609,-0.160938 4.342857,4.342857 0 0 0 0.138281,-0.129297 l -0.633992,-0.621484 a 3.457143,3.457143 0 0 1 -2.466797,1.039453 3.457143,3.457143 0 0 1 -3.457031,-3.4570306 3.457143,3.457143 0 0 1 3.457031,-3.457031 3.457143,3.457143 0 0 1 0.02578,0.0012 l 0.0066,-0.885938 a 4.342857,4.342857 0 0 0 -0.02148,-7.81e-4 z"
         style="opacity:1;fill:#000000;fill-opacity:1;fill-rule:evenodd;stroke:#000000;stroke-width:0.38;stroke-linejoin:round;stroke-miterlimit:4;stroke-dasharray:none;stroke-opacity:1" />
      <path
         inkscape:connector-curvature="0"
         id="path4892"
         d="m 10.000279,5.0856024 a 4.342857,4.342857 0 0 0 -0.0078,3.91e-4 4.342857,4.342857 0 0 1 0.01875,0 4.342857,4.342857 0 0 0 -0.01094,-3.91e-4 z"
         style="opacity:1;fill:none;fill-opacity:1;fill-rule:evenodd;stroke:#000000;stroke-width:0.38;stroke-linejoin:round;stroke-miterlimit:4;stroke-dasharray:none;stroke-opacity:1" />
    </g>
    <g
       id="g4894"
       transform="translate(21.769248,18)">
      <path
         style="opacity:1;fill:none;fill-opacity:1;fill-rule:evenodd;stroke:#000000;stroke-width:0.38;stroke-linejoin:round;stroke-miterlimit:4;stroke-dasharray:none;stroke-opacity:1"
         d="m 5.6627791,9.5406804 a 4.342857,4.342857 0 0 1 -3.91e-4,-0.258203 4.342857,4.342857 0 0 0 -0.00508,0.146094 4.342857,4.342857 0 0 0 0.0055,0.112109 z"
         id="path4896"
         inkscape:connector-curvature="0" />
      <path
         style="opacity:1;fill:none;fill-opacity:1;fill-rule:evenodd;stroke:#000000;stroke-width:0.38;stroke-linejoin:round;stroke-miterlimit:4;stroke-dasharray:none;stroke-opacity:1"
         d="m 10.203404,13.761383 a 4.342857,4.342857 0 0 1 -0.2144529,0.0098 4.342857,4.342857 0 0 0 0.01133,3.91e-4 4.342857,4.342857 0 0 0 0.203125,-0.01016 z"
         id="path4898"
         inkscape:connector-curvature="0" />
      <path
         style="opacity:1;fill:none;fill-opacity:1;fill-rule:evenodd;stroke:#000000;stroke-width:0.38;stroke-linejoin:round;stroke-miterlimit:4;stroke-dasharray:none;stroke-opacity:1"
         d="m 10.032701,5.0867744 -0.0066,0.885938 a 3.457143,3.457143 0 0 1 3.431209,3.455859 3.457143,3.457143 0 0 1 -0.990234,2.4175776 l 0.633984,0.621484 a 4.342857,4.342857 0 0 0 1.242188,-3.0390616 4.342857,4.342857 0 0 0 -4.310547,-4.341797 z"
         id="path4900"
         inkscape:connector-curvature="0" />
      <path
         style="opacity:1;fill:#000000;fill-opacity:1;fill-rule:evenodd;stroke:#000000;stroke-width:0.38;stroke-linejoin:round;stroke-miterlimit:4;stroke-dasharray:none;stroke-opacity:1"
         d="m 10.011216,5.0859934 a 4.342857,4.342857 0 0 0 -0.01875,0 4.342857,4.342857 0 0 0 -0.218359,0.01094 4.342857,4.342857 0 0 0 -0.221094,0.0125 4.342857,4.342857 0 0 0 -0.244922,0.03711 4.342857,4.342857 0 0 0 -0.184375,0.0293 4.342857,4.342857 0 0 0 -0.209765,0.05352 4.342857,4.342857 0 0 0 -0.214063,0.05625 4.342857,4.342857 0 0 0 -0.201172,0.07344 4.342857,4.342857 0 0 0 -0.202343,0.07578 4.342857,4.342857 0 0 0 -0.2,0.09648 4.342857,4.342857 0 0 0 -0.192969,0.09492 4.342857,4.342857 0 0 0 -0.164453,0.100782 4.342857,4.342857 0 0 0 -0.20586,0.128515 4.342857,4.342857 0 0 0 -0.146093,0.110938 4.342857,4.342857 0 0 0 -0.197656,0.152343 4.342857,4.342857 0 0 0 -0.152344,0.142188 4.342857,4.342857 0 0 0 -0.1625,0.153516 4.342857,4.342857 0 0 0 -0.152344,0.173437 4.342857,4.342857 0 0 0 -0.132031,0.152344 4.342857,4.342857 0 0 0 -0.135938,0.190625 4.342857,4.342857 0 0 0 -0.116015,0.164844 4.342857,4.342857 0 0 0 -0.110938,0.192968 4.342857,4.342857 0 0 0 -0.103515,0.183985 4.342857,4.342857 0 0 0 -0.09375,0.209765 4.342857,4.342857 0 0 0 -0.08203,0.186328 4.342857,4.342857 0 0 0 -0.06523,0.196094 4.342857,4.342857 0 0 0 -0.07148,0.220703 4.342857,4.342857 0 0 0 -0.05195,0.232813 4.342857,4.342857 0 0 0 -0.04453,0.221094 4.342857,4.342857 0 0 0 -0.02578,0.212109 4.342857,4.342857 0 0 0 -0.02266,0.228125 4.342857,4.342857 0 0 0 -0.0039,0.102734 4.342857,4.342857 0 0 0 3.91e-4,0.258203 4.342857,4.342857 0 0 0 0.01133,0.217188 4.342857,4.342857 0 0 0 0.02109,0.210937 4.342857,4.342857 0 0 0 0.03359,0.2214846 4.342857,4.342857 0 0 0 0.04297,0.210937 4.342857,4.342857 0 0 0 0.05156,0.202344 4.342857,4.342857 0 0 0 0.06836,0.219922 4.342857,4.342857 0 0 0 0.07148,0.195312 4.342857,4.342857 0 0 0 0.08555,0.201172 4.342857,4.342857 0 0 0 0.09375,0.194532 4.342857,4.342857 0 0 0 0.10625,0.19375 4.342857,4.342857 0 0 0 0.110156,0.179687 4.342857,4.342857 0 0 0 0.126562,0.184766 4.342857,4.342857 0 0 0 0.127735,0.167578 4.342857,4.342857 0 0 0 0.142187,0.168359 4.342857,4.342857 0 0 0 0.148438,0.158984 4.342857,4.342857 0 0 0 0.152734,0.148438 4.342857,4.342857 0 0 0 0.164453,0.144531 4.342857,4.342857 0 0 0 0.173438,0.136719 4.342857,4.342857 0 0 0 0.171875,0.123047 4.342857,4.342857 0 0 0 0.182812,0.117187 4.342857,4.342857 0 0 0 0.217969,0.125 4.342857,4.342857 0 0 0 0.195703,0.0957 4.342857,4.342857 0 0 0 0.195703,0.0875 4.342857,4.342857 0 0 0 0.208594,0.07734 4.342857,4.342857 0 0 0 0.198437,0.06602 4.342857,4.342857 0 0 0 0.217188,0.05664 4.342857,4.342857 0 0 0 0.207422,0.04648 4.342857,4.342857 0 0 0 0.214843,0.0332 4.342857,4.342857 0 0 0 0.214844,0.02617 4.342857,4.342857 0 0 0 0.323828,0.01797 4.342857,4.342857 0 0 0 0.04531,0.0016 4.342857,4.342857 0 0 0 0.214453,-0.0098 4.342857,4.342857 0 0 0 0.220312,-0.01133 4.342857,4.342857 0 0 0 0.215625,-0.03125 4.342857,4.342857 0 0 0 0.214063,-0.03242 4.342857,4.342857 0 0 0 0.259375,-0.06523 4.342857,4.342857 0 0 0 0.157812,-0.03984 4.342857,4.342857 0 0 0 0.221094,-0.07969 4.342857,4.342857 0 0 0 0.192578,-0.07031 4.342857,4.342857 0 0 0 0.18086,-0.08672 4.342857,4.342857 0 0 0 0.20664,-0.09961 4.342857,4.342857 0 0 0 0.247266,-0.15 4.342857,4.342857 0 0 0 0.121484,-0.07461 4.342857,4.342857 0 0 0 0.226172,-0.170313 4.342857,4.342857 0 0 0 0.121485,-0.09219 4.342857,4.342857 0 0 0 0.174609,-0.160938 4.342857,4.342857 0 0 0 0.138281,-0.129297 l -0.633992,-0.621484 a 3.457143,3.457143 0 0 1 -2.466797,1.039453 3.457143,3.457143 0 0 1 -3.457031,-3.4570306 3.457143,3.457143 0 0 1 3.457031,-3.457031 3.457143,3.457143 0 0 1 0.02578,0.0012 l 0.0066,-0.885938 a 4.342857,4.342857 0 0 0 -0.02148,-7.81e-4 z"
         id="path4902"
         inkscape:connector-curvature="0" />
      <path
         style="opacity:1;fill:none;fill-opacity:1;fill-rule:evenodd;stroke:#000000;stroke-width:0.38;stroke-linejoin:round;stroke-miterlimit:4;stroke-dasharray:none;stroke-opacity:1"
         d="m 10.000279,5.0856024 a 4.342857,4.342857 0 0 0 -0.0078,3.91e-4 4.342857,4.342857 0 0 1 0.01875,0 4.342857,4.342857 0 0 0 -0.01094,-3.91e-4 z"
         id="path4904"
         inkscape:connector-curvature="0" />
    </g>
    <rect
       style="opacity:1;fill:none;fill-opacity:1;fill-rule:evenodd;stroke:#000000;stroke-width:1.89999998;stroke-linejoin:round;stroke-miterlimit:4;stroke-dasharray:none;stroke-opacity:1"
       id="rect4906"
       width="43.857143"
       height="36.57143"
       x="2"
       y="4.8571429" />
  </g>
</svg>
