<?xml version="1.0" encoding="UTF-8" standalone="no"?>
<!-- Created with Inkscape (http://www.inkscape.org/) -->

<svg
   xmlns:dc="http://purl.org/dc/elements/1.1/"
   xmlns:cc="http://creativecommons.org/ns#"
   xmlns:rdf="http://www.w3.org/1999/02/22-rdf-syntax-ns#"
   xmlns:svg="http://www.w3.org/2000/svg"
   xmlns="http://www.w3.org/2000/svg"
   xmlns:sodipodi="http://sodipodi.sourceforge.net/DTD/sodipodi-0.dtd"
   xmlns:inkscape="http://www.inkscape.org/namespaces/inkscape"
   width="48"
   height="48"
   id="svg4165"
   version="1.1"
   inkscape:version="0.91 r13725"
   viewBox="0 0 48 48"
   sodipodi:docname="progress.svg">
  <defs
     id="defs4167" />
  <sodipodi:namedview
     id="base"
     pagecolor="#ffffff"
     bordercolor="#666666"
     borderopacity="1.0"
     inkscape:pageopacity="0.0"
     inkscape:pageshadow="2"
     inkscape:zoom="14"
     inkscape:cx="26.650064"
     inkscape:cy="23.724062"
     inkscape:current-layer="layer1"
     showgrid="true"
     inkscape:grid-bbox="true"
     inkscape:document-units="px"
     inkscape:window-width="1916"
     inkscape:window-height="1118"
     inkscape:window-x="0"
     inkscape:window-y="80"
     inkscape:window-maximized="0" />
  <metadata
     id="metadata4170">
    <rdf:RDF>
      <cc:Work
         rdf:about="">
        <dc:format>image/svg+xml</dc:format>
        <dc:type
           rdf:resource="http://purl.org/dc/dcmitype/StillImage" />
        <dc:title></dc:title>
      </cc:Work>
    </rdf:RDF>
  </metadata>
  <g
     id="layer1"
     inkscape:label="Layer 1"
     inkscape:groupmode="layer">
    <path
       style="opacity:1;fill:none;fill-opacity:1;fill-rule:evenodd;stroke:#000000;stroke-width:1.9;stroke-linejoin:round;stroke-miterlimit:4;stroke-dasharray:none;stroke-opacity:1"
       d="M 2.1699219 24.560547 A 21.714285 21.714285 0 0 1 2.1679688 23.269531 A 21.714285 21.714285 0 0 0 2.1425781 24 A 21.714285 21.714285 0 0 0 2.1699219 24.560547 z "
       id="path4752" />
    <path
       style="opacity:1;fill:none;fill-opacity:1;fill-rule:evenodd;stroke:#000000;stroke-width:1.9;stroke-linejoin:round;stroke-miterlimit:4;stroke-dasharray:none;stroke-opacity:1"
       d="M 24.873047 45.664062 A 21.714285 21.714285 0 0 1 23.800781 45.712891 A 21.714285 21.714285 0 0 0 23.857422 45.714844 A 21.714285 21.714285 0 0 0 24.873047 45.664062 z "
       id="path4750" />
    <path
       style="opacity:1;fill:none;fill-opacity:1;fill-rule:evenodd;stroke:#000000;stroke-width:1.9;stroke-linejoin:round;stroke-miterlimit:4;stroke-dasharray:none;stroke-opacity:1"
       d="M 24.019531 2.2910156 L 23.986328 6.7207031 A 17.285715 17.285715 0 0 1 41.142578 24 A 17.285715 17.285715 0 0 1 36.191406 36.087891 L 39.361328 39.195312 A 21.714285 21.714285 0 0 0 45.572266 24 A 21.714285 21.714285 0 0 0 24.019531 2.2910156 z "
       id="path4748" />
    <path
       style="opacity:1;fill:#000000;fill-opacity:1;fill-rule:evenodd;stroke:#000000;stroke-width:1.9;stroke-linejoin:round;stroke-miterlimit:4;stroke-dasharray:none;stroke-opacity:1"
       d="M 23.912109 2.2871094 A 21.714285 21.714285 0 0 0 23.818359 2.2871094 A 21.714285 21.714285 0 0 0 22.726562 2.3417969 A 21.714285 21.714285 0 0 0 21.621094 2.4042969 A 21.714285 21.714285 0 0 0 20.396484 2.5898438 A 21.714285 21.714285 0 0 0 19.474609 2.7363281 A 21.714285 21.714285 0 0 0 18.425781 3.0039062 A 21.714285 21.714285 0 0 0 17.355469 3.2851562 A 21.714285 21.714285 0 0 0 16.349609 3.6523438 A 21.714285 21.714285 0 0 0 15.337891 4.03125 A 21.714285 21.714285 0 0 0 14.337891 4.5136719 A 21.714285 21.714285 0 0 0 13.373047 4.9882812 A 21.714285 21.714285 0 0 0 12.550781 5.4921875 A 21.714285 21.714285 0 0 0 11.521484 6.1347656 A 21.714285 21.714285 0 0 0 10.791016 6.6894531 A 21.714285 21.714285 0 0 0 9.8027344 7.4511719 A 21.714285 21.714285 0 0 0 9.0410156 8.1621094 A 21.714285 21.714285 0 0 0 8.2285156 8.9296875 A 21.714285 21.714285 0 0 0 7.4667969 9.796875 A 21.714285 21.714285 0 0 0 6.8066406 10.558594 A 21.714285 21.714285 0 0 0 6.1269531 11.511719 A 21.714285 21.714285 0 0 0 5.546875 12.335938 A 21.714285 21.714285 0 0 0 4.9921875 13.300781 A 21.714285 21.714285 0 0 0 4.4746094 14.220703 A 21.714285 21.714285 0 0 0 4.0058594 15.269531 A 21.714285 21.714285 0 0 0 3.5957031 16.201172 A 21.714285 21.714285 0 0 0 3.2695312 17.181641 A 21.714285 21.714285 0 0 0 2.9121094 18.285156 A 21.714285 21.714285 0 0 0 2.6523438 19.449219 A 21.714285 21.714285 0 0 0 2.4296875 20.554688 A 21.714285 21.714285 0 0 0 2.3007812 21.615234 A 21.714285 21.714285 0 0 0 2.1875 22.755859 A 21.714285 21.714285 0 0 0 2.1679688 23.269531 A 21.714285 21.714285 0 0 0 2.1699219 24.560547 A 21.714285 21.714285 0 0 0 2.2265625 25.646484 A 21.714285 21.714285 0 0 0 2.3320312 26.701172 A 21.714285 21.714285 0 0 0 2.5 27.808594 A 21.714285 21.714285 0 0 0 2.7148438 28.863281 A 21.714285 21.714285 0 0 0 2.9726562 29.875 A 21.714285 21.714285 0 0 0 3.3144531 30.974609 A 21.714285 21.714285 0 0 0 3.671875 31.951172 A 21.714285 21.714285 0 0 0 4.0996094 32.957031 A 21.714285 21.714285 0 0 0 4.5683594 33.929688 A 21.714285 21.714285 0 0 0 5.0996094 34.898438 A 21.714285 21.714285 0 0 0 5.6503906 35.796875 A 21.714285 21.714285 0 0 0 6.2832031 36.720703 A 21.714285 21.714285 0 0 0 6.921875 37.558594 A 21.714285 21.714285 0 0 0 7.6328125 38.400391 A 21.714285 21.714285 0 0 0 8.375 39.195312 A 21.714285 21.714285 0 0 0 9.1386719 39.9375 A 21.714285 21.714285 0 0 0 9.9609375 40.660156 A 21.714285 21.714285 0 0 0 10.828125 41.34375 A 21.714285 21.714285 0 0 0 11.6875 41.958984 A 21.714285 21.714285 0 0 0 12.601562 42.544922 A 21.714285 21.714285 0 0 0 13.691406 43.169922 A 21.714285 21.714285 0 0 0 14.669922 43.648438 A 21.714285 21.714285 0 0 0 15.648438 44.085938 A 21.714285 21.714285 0 0 0 16.691406 44.472656 A 21.714285 21.714285 0 0 0 17.683594 44.802734 A 21.714285 21.714285 0 0 0 18.769531 45.085938 A 21.714285 21.714285 0 0 0 19.806641 45.318359 A 21.714285 21.714285 0 0 0 20.880859 45.484375 A 21.714285 21.714285 0 0 0 21.955078 45.615234 A 21.714285 21.714285 0 0 0 23.574219 45.705078 A 21.714285 21.714285 0 0 0 23.800781 45.712891 A 21.714285 21.714285 0 0 0 24.873047 45.664062 A 21.714285 21.714285 0 0 0 25.974609 45.607422 A 21.714285 21.714285 0 0 0 27.052734 45.451172 A 21.714285 21.714285 0 0 0 28.123047 45.289062 A 21.714285 21.714285 0 0 0 29.419922 44.962891 A 21.714285 21.714285 0 0 0 30.208984 44.763672 A 21.714285 21.714285 0 0 0 31.314453 44.365234 A 21.714285 21.714285 0 0 0 32.277344 44.013672 A 21.714285 21.714285 0 0 0 33.181641 43.580078 A 21.714285 21.714285 0 0 0 34.214844 43.082031 A 21.714285 21.714285 0 0 0 35.451172 42.332031 A 21.714285 21.714285 0 0 0 36.058594 41.958984 A 21.714285 21.714285 0 0 0 37.189453 41.107422 A 21.714285 21.714285 0 0 0 37.796875 40.646484 A 21.714285 21.714285 0 0 0 38.669922 39.841797 A 21.714285 21.714285 0 0 0 39.361328 39.195312 L 36.191406 36.087891 A 17.285715 17.285715 0 0 1 23.857422 41.285156 A 17.285715 17.285715 0 0 1 6.5722656 24 A 17.285715 17.285715 0 0 1 23.857422 6.7148438 A 17.285715 17.285715 0 0 1 23.986328 6.7207031 L 24.019531 2.2910156 A 21.714285 21.714285 0 0 0 23.912109 2.2871094 z "
       id="path4746" />
    <path
       style="opacity:1;fill:none;fill-opacity:1;fill-rule:evenodd;stroke:#000000;stroke-width:1.9;stroke-linejoin:round;stroke-miterlimit:4;stroke-dasharray:none;stroke-opacity:1"
       d="M 23.857422 2.2851562 A 21.714285 21.714285 0 0 0 23.818359 2.2871094 A 21.714285 21.714285 0 0 1 23.912109 2.2871094 A 21.714285 21.714285 0 0 0 23.857422 2.2851562 z "
       id="path4722" />
  </g>
</svg>
