<?xml version="1.0" encoding="UTF-8" standalone="no"?>
<!-- Created with Inkscape (http://www.inkscape.org/) -->

<svg
   xmlns:dc="http://purl.org/dc/elements/1.1/"
   xmlns:cc="http://creativecommons.org/ns#"
   xmlns:rdf="http://www.w3.org/1999/02/22-rdf-syntax-ns#"
   xmlns:svg="http://www.w3.org/2000/svg"
   xmlns="http://www.w3.org/2000/svg"
   xmlns:xlink="http://www.w3.org/1999/xlink"
   xmlns:sodipodi="http://sodipodi.sourceforge.net/DTD/sodipodi-0.dtd"
   xmlns:inkscape="http://www.inkscape.org/namespaces/inkscape"
   width="793.70081"
   height="1122.5197"
   viewBox="0 0 210 297"
   version="1.1"
   id="svg1552"
   sodipodi:docname="settings2.svg"
   inkscape:version="0.92.2 5c3e80d, 2017-08-06">
  <defs
     id="defs1546">
    <linearGradient
       inkscape:collect="always"
       id="linearGradient2234">
      <stop
         style="stop-color:#00c0c0;stop-opacity:1;"
         offset="0"
         id="stop2230" />
      <stop
         style="stop-color:#00c0c0;stop-opacity:0;"
         offset="1"
         id="stop2232" />
    </linearGradient>
    <linearGradient
       inkscape:collect="always"
       id="linearGradient2226">
      <stop
         style="stop-color:#0000b1;stop-opacity:1;"
         offset="0"
         id="stop2222" />
      <stop
         style="stop-color:#0000b1;stop-opacity:0;"
         offset="1"
         id="stop2224" />
    </linearGradient>
    <linearGradient
       inkscape:collect="always"
       id="linearGradient2218">
      <stop
         style="stop-color:#3c3cff;stop-opacity:1;"
         offset="0"
         id="stop2214" />
      <stop
         style="stop-color:#3c3cff;stop-opacity:0;"
         offset="1"
         id="stop2216" />
    </linearGradient>
    <linearGradient
       inkscape:collect="always"
       xlink:href="#linearGradient2218"
       id="linearGradient2220"
       x1="3671.9952"
       y1="-2557.9468"
       x2="4476.3862"
       y2="-2517.6221"
       gradientUnits="userSpaceOnUse"
       gradientTransform="matrix(0.08226564,0,0,0.08226562,4526.2041,-2910.7141)" />
    <linearGradient
       inkscape:collect="always"
       xlink:href="#linearGradient2226"
       id="linearGradient2228"
       x1="3334.9227"
       y1="-1573.0751"
       x2="4016.2605"
       y2="-1573.0751"
       gradientUnits="userSpaceOnUse"
       gradientTransform="matrix(0.08226562,0,0,0.08226562,4371.9774,-1739.2462)" />
    <linearGradient
       inkscape:collect="always"
       xlink:href="#linearGradient2234"
       id="linearGradient2236"
       x1="3616.2125"
       y1="-2557.947"
       x2="4080.6899"
       y2="-2523.5049"
       gradientUnits="userSpaceOnUse"
       gradientTransform="matrix(0.08226564,0,0,0.08226562,4526.2041,-2910.7141)" />
  </defs>
  <sodipodi:namedview
     id="base"
     pagecolor="#ffffff"
     bordercolor="#666666"
     borderopacity="1.0"
     inkscape:pageopacity="0.0"
     inkscape:pageshadow="2"
     inkscape:zoom="1.28"
     inkscape:cx="17408.496"
     inkscape:cy="8148.4668"
     inkscape:document-units="px"
     inkscape:current-layer="layer1"
     showgrid="false"
     units="px"
     showborder="false"
     inkscape:snap-intersection-paths="true"
     inkscape:object-paths="true"
     inkscape:snap-smooth-nodes="true"
     inkscape:snap-nodes="true"
     inkscape:window-width="1916"
     inkscape:window-height="1149"
     inkscape:window-x="0"
     inkscape:window-y="49"
     inkscape:window-maximized="0"
     showguides="true"
     inkscape:guide-bbox="true" />
  <metadata
     id="metadata1549">
    <rdf:RDF>
      <cc:Work
         rdf:about="">
        <dc:format>image/svg+xml</dc:format>
        <dc:type
           rdf:resource="http://purl.org/dc/dcmitype/StillImage" />
        <dc:title></dc:title>
      </cc:Work>
    </rdf:RDF>
  </metadata>
  <g
     inkscape:label="Layer 1"
     inkscape:groupmode="layer"
     id="layer1">
    <rect
       style="opacity:1;vector-effect:none;fill:#ffffff;fill-opacity:1;fill-rule:evenodd;stroke:none;stroke-width:0.26458332;stroke-linecap:round;stroke-linejoin:round;stroke-miterlimit:4;stroke-dasharray:none;stroke-dashoffset:0;stroke-opacity:1;paint-order:markers stroke fill"
       id="rect2246"
       width="67.73333"
       height="67.73333"
       x="4643.9668"
       y="-1904.3334"
       inkscape:export-xdpi="96"
       inkscape:export-ydpi="96" />
    <path
       transform="matrix(0.96592583,0.25881904,0,1,0,0)"
       d="m 4839.2846,-3128.1631 a 7.265801,7.0182247 0 0 1 7.2272,6.9843 7.265801,7.0182247 0 0 1 -7.1572,7.0512 7.265801,7.0182247 0 0 1 -7.372,-6.8415 7.265801,7.0182247 0 0 1 7.0079,-7.1898"
       sodipodi:open="true"
       sodipodi:end="4.6772031"
       sodipodi:start="4.7176948"
       sodipodi:ry="7.0182247"
       sodipodi:rx="7.265801"
       sodipodi:cy="-3121.145"
       sodipodi:cx="4839.2461"
       sodipodi:type="arc"
       id="path2148"
       style="opacity:1;vector-effect:none;fill:#ffffff;fill-opacity:1;fill-rule:evenodd;stroke:none;stroke-width:0.01034714;stroke-linecap:round;stroke-linejoin:round;stroke-miterlimit:4;stroke-dasharray:none;stroke-dashoffset:0;stroke-opacity:1;paint-order:markers stroke fill" />
    <path
       style="opacity:0.47000002;vector-effect:none;fill:#000080;fill-opacity:1;fill-rule:evenodd;stroke:none;stroke-width:0.0217661;stroke-linecap:round;stroke-linejoin:round;stroke-miterlimit:4;stroke-dasharray:none;stroke-dashoffset:0;stroke-opacity:1;paint-order:markers stroke fill"
       inkscape:transform-center-x="0.0054589066"
       d="m 4465.6164,-1840.2483 -4.9833,2.8915 -4.4688,9.668 -7.9119,0.023 -4.5107,-9.6486 -4.9955,-2.87 -10.6073,0.9639 -3.9707,-6.8433 6.1006,-8.7306 -0.023,-5.7613 -6.1385,-8.7043 3.9412,-6.8604 10.6112,0.9183 4.9833,-2.8915 4.4688,-9.6681 7.9119,-0.023 4.5106,9.6486 4.9955,2.8698 10.6074,-0.9637 3.9707,6.8431 -6.1008,8.7308 0.023,5.7613 6.1385,8.7041 -3.9412,6.8604 z"
       id="path1779"
       inkscape:connector-curvature="0"
       sodipodi:nodetypes="ccccccccccccccccccccccccc"
       inkscape:transform-center-y="0.0029867857" />
    <path
       style="opacity:0.47000002;vector-effect:none;fill:#00ffff;fill-opacity:1;fill-rule:evenodd;stroke:none;stroke-width:0.0217661;stroke-linecap:round;stroke-linejoin:round;stroke-miterlimit:4;stroke-dasharray:none;stroke-dashoffset:0;stroke-opacity:1;paint-order:markers stroke fill"
       id="path1784"
       sodipodi:type="arc"
       sodipodi:cx="4452.144"
       sodipodi:cy="-1857.7284"
       sodipodi:rx="15.021584"
       sodipodi:ry="15.021584"
       sodipodi:start="4.7176948"
       sodipodi:end="4.6772031"
       sodipodi:open="true"
       d="m 4452.2237,-1872.7498 a 15.021584,15.021584 0 0 1 14.9418,14.949 15.021584,15.021584 0 0 1 -14.797,15.0923 15.021584,15.021584 0 0 1 -15.2413,-14.6434 15.021584,15.021584 0 0 1 14.4884,-15.3888" />
    <path
       d="m 4452.2002,-1868.3172 a 10.588954,10.588954 0 0 1 10.5327,10.5378 10.588954,10.588954 0 0 1 -10.4307,10.6388 10.588954,10.588954 0 0 1 -10.7438,-10.3224 10.588954,10.588954 0 0 1 10.2131,-10.8478"
       sodipodi:open="true"
       sodipodi:end="4.6772031"
       sodipodi:start="4.7176948"
       sodipodi:ry="10.588954"
       sodipodi:rx="10.588954"
       sodipodi:cy="-1857.7284"
       sodipodi:cx="4452.144"
       sodipodi:type="arc"
       id="path1786"
       style="opacity:0.47000002;vector-effect:none;fill:#0000ff;fill-opacity:1;fill-rule:evenodd;stroke:none;stroke-width:0.01534329;stroke-linecap:round;stroke-linejoin:round;stroke-miterlimit:4;stroke-dasharray:none;stroke-dashoffset:0;stroke-opacity:1;paint-order:markers stroke fill" />
    <path
       style="opacity:1;vector-effect:none;fill:#ffffff;fill-opacity:1;fill-rule:evenodd;stroke:none;stroke-width:0.01016934;stroke-linecap:round;stroke-linejoin:round;stroke-miterlimit:4;stroke-dasharray:none;stroke-dashoffset:0;stroke-opacity:1;paint-order:markers stroke fill"
       id="path1788"
       sodipodi:type="arc"
       sodipodi:cx="4452.144"
       sodipodi:cy="-1857.7284"
       sodipodi:rx="7.0182247"
       sodipodi:ry="7.0182247"
       sodipodi:start="4.7176948"
       sodipodi:end="4.6772031"
       sodipodi:open="true"
       d="m 4452.1813,-1864.7465 a 7.0182247,7.0182247 0 0 1 6.9809,6.9843 7.0182247,7.0182247 0 0 1 -6.9133,7.0512 7.0182247,7.0182247 0 0 1 -7.1209,-6.8415 7.0182247,7.0182247 0 0 1 6.7692,-7.1898" />
    <path
       style="opacity:1;vector-effect:none;fill:url(#linearGradient2228);fill-opacity:1;fill-rule:evenodd;stroke:none;stroke-width:0.0217661;stroke-linecap:round;stroke-linejoin:round;stroke-miterlimit:4;stroke-dasharray:none;stroke-dashoffset:0;stroke-opacity:1;paint-order:markers stroke fill"
       inkscape:transform-center-x="0.0052861062"
       d="m 4687.825,-1847.5661 -4.983,1.5561 -4.4691,8.4708 -7.9117,-2.1029 -4.5106,-10.8575 -4.9957,-4.2085 -10.6071,-1.8783 -3.9708,-7.9071 6.1006,-7.096 -0.023,-5.7645 -6.1382,-10.3491 3.9409,-5.8045 10.6115,3.7615 4.9833,-1.5563 4.4688,-8.4705 7.9117,2.1028 4.5106,10.8573 4.9957,4.2085 10.6073,1.8783 3.9706,7.9071 -6.1007,7.096 0.023,5.7648 6.1383,10.349 -3.9409,5.8043 z"
       id="path1965"
       inkscape:connector-curvature="0"
       sodipodi:nodetypes="ccccccccccccccccccccccccc"
       inkscape:transform-center-y="0.000105172" />
    <path
       style="opacity:1;vector-effect:none;fill:url(#linearGradient2236);fill-opacity:1;fill-rule:evenodd;stroke:none;stroke-width:0.02214671;stroke-linecap:round;stroke-linejoin:round;stroke-miterlimit:4;stroke-dasharray:none;stroke-dashoffset:0;stroke-opacity:1;paint-order:markers stroke fill"
       id="path1967"
       sodipodi:type="arc"
       sodipodi:cx="4839.2461"
       sodipodi:cy="-3121.1455"
       sodipodi:rx="15.551488"
       sodipodi:ry="15.021584"
       sodipodi:start="4.7176948"
       sodipodi:end="4.6772031"
       sodipodi:open="true"
       d="m 4839.3286,-3136.1669 a 15.551488,15.021584 0 0 1 15.4688,14.949 15.551488,15.021584 0 0 1 -15.319,15.0923 15.551488,15.021584 0 0 1 -15.7789,-14.6435 15.551488,15.021584 0 0 1 14.9995,-15.3887"
       transform="matrix(0.96592583,0.25881904,0,1,0,0)" />
    <path
       d="m 4839.3043,-3131.7343 a 10.962492,10.588954 0 0 1 10.9042,10.5378 10.962492,10.588954 0 0 1 -10.7986,10.6388 10.962492,10.588954 0 0 1 -11.1229,-10.3224 10.962492,10.588954 0 0 1 10.5734,-10.8478"
       sodipodi:open="true"
       sodipodi:end="4.6772031"
       sodipodi:start="4.7176948"
       sodipodi:ry="10.588954"
       sodipodi:rx="10.962492"
       sodipodi:cy="-3121.1455"
       sodipodi:cx="4839.2461"
       sodipodi:type="arc"
       id="path1969"
       style="opacity:1;vector-effect:none;fill:#0000ff;fill-opacity:1;fill-rule:evenodd;stroke:none;stroke-width:0.01561156;stroke-linecap:round;stroke-linejoin:round;stroke-miterlimit:4;stroke-dasharray:none;stroke-dashoffset:0;stroke-opacity:1;paint-order:markers stroke fill"
       transform="matrix(0.96592583,0.25881904,0,1,0,0)" />
    <path
       transform="matrix(0.96592583,0.25881904,0,1,0,0)"
       style="opacity:1;vector-effect:none;fill:url(#linearGradient2220);fill-opacity:1;fill-rule:evenodd;stroke:none;stroke-width:0.01561156;stroke-linecap:round;stroke-linejoin:round;stroke-miterlimit:4;stroke-dasharray:none;stroke-dashoffset:0;stroke-opacity:1;paint-order:markers stroke fill"
       id="path2102"
       sodipodi:type="arc"
       sodipodi:cx="4839.2461"
       sodipodi:cy="-3121.1455"
       sodipodi:rx="10.962492"
       sodipodi:ry="10.588954"
       sodipodi:start="4.7176948"
       sodipodi:end="4.6772031"
       sodipodi:open="true"
       d="m 4839.3043,-3131.7343 a 10.962492,10.588954 0 0 1 10.9042,10.5378 10.962492,10.588954 0 0 1 -10.7986,10.6388 10.962492,10.588954 0 0 1 -11.1229,-10.3224 10.962492,10.588954 0 0 1 10.5734,-10.8478" />
    <path
       style="opacity:1;vector-effect:none;fill:#ffffff;fill-opacity:1;fill-rule:evenodd;stroke:none;stroke-width:0.01034714;stroke-linecap:round;stroke-linejoin:round;stroke-miterlimit:4;stroke-dasharray:none;stroke-dashoffset:0;stroke-opacity:1;paint-order:markers stroke fill"
       id="path1971"
       sodipodi:type="arc"
       sodipodi:cx="4839.2461"
       sodipodi:cy="-3121.145"
       sodipodi:rx="7.265801"
       sodipodi:ry="7.0182247"
       sodipodi:start="4.7176948"
       sodipodi:end="4.6772031"
       sodipodi:open="true"
       d="m 4839.2846,-3128.1631 a 7.265801,7.0182247 0 0 1 7.2272,6.9843 7.265801,7.0182247 0 0 1 -7.1572,7.0512 7.265801,7.0182247 0 0 1 -7.372,-6.8415 7.265801,7.0182247 0 0 1 7.0079,-7.1898"
       transform="matrix(0.96592583,0.25881904,0,1,0,0)" />
    <path
       style="opacity:1;vector-effect:none;fill:#1335f5;fill-opacity:1;fill-rule:evenodd;stroke:none;stroke-width:0.01534329;stroke-linecap:round;stroke-linejoin:round;stroke-miterlimit:4;stroke-dasharray:none;stroke-dashoffset:0;stroke-opacity:1;paint-order:markers stroke fill"
       d="m 4672.306,-1875.9179 a 8.0211943,6.1406667 48.815366 0 0 -2.3957,0.642 12.102214,9.2649121 48.815367 0 0 0,0.3075 12.102214,9.2649121 48.815367 0 0 9.2508,12.7097 8.0211943,6.1406667 48.815366 0 0 2.0259,-2.9756 8.021194,6.1406667 48.815366 0 1 -0.5863,-0.1178 8.021194,6.1406667 48.815366 0 1 -7.1207,-8.7496 8.021194,6.1406667 48.815366 0 1 0.1917,-1.7228 8.0211943,6.1406667 48.815366 0 0 -1.3571,-0.095 z"
       id="path1979"
       inkscape:connector-curvature="0" />
    <path
       inkscape:connector-curvature="0"
       id="path1985"
       d="m 4650.2678,-1893.5076 6.136,-3.7411 10.6115,3.7615 -1.1527,2.1848 -4.9833,1.5563 z"
       style="opacity:1;fill:#000080;fill-opacity:0.59777605;fill-rule:evenodd;stroke:#000000;stroke-width:0.0217661px;stroke-linecap:butt;stroke-linejoin:miter;stroke-opacity:1" />
    <path
       inkscape:connector-curvature="0"
       id="path1987"
       d="m 4670.3314,-1899.7729 6.136,-3.7411 7.9117,2.1028 -6.136,3.7411 z"
       style="opacity:1;fill:#000080;fill-opacity:0.59777605;fill-rule:evenodd;stroke:#000000;stroke-width:0.0217661px;stroke-linecap:butt;stroke-linejoin:miter;stroke-opacity:1" />
    <path
       inkscape:connector-curvature="0"
       id="path1989"
       d="m 4678.2431,-1897.6701 6.136,-3.7411 4.5106,10.8573 -6.136,3.7411 z"
       style="opacity:1;fill:#000080;fill-opacity:0.59777605;fill-rule:evenodd;stroke:#000000;stroke-width:0.0217661px;stroke-linecap:butt;stroke-linejoin:miter;stroke-opacity:1" />
    <path
       inkscape:connector-curvature="0"
       id="path1991"
       d="m 4682.7537,-1886.8128 4.9958,4.2085 6.1359,-3.7412 -4.9957,-4.2084 z"
       style="opacity:1;fill:#000080;fill-opacity:0.59777605;fill-rule:evenodd;stroke:#000000;stroke-width:0.0217661px;stroke-linecap:butt;stroke-linejoin:miter;stroke-opacity:1" />
    <path
       inkscape:connector-curvature="0"
       id="path1993"
       d="m 4687.7495,-1882.6043 6.1359,-3.7412 10.6071,1.8784 -6.1357,3.7411 z"
       style="opacity:1;fill:#000080;fill-opacity:0.59777605;fill-rule:evenodd;stroke:#000000;stroke-width:0.0217661px;stroke-linecap:butt;stroke-linejoin:miter;stroke-opacity:1" />
    <path
       inkscape:connector-curvature="0"
       id="path1995"
       d="m 4698.3568,-1880.726 6.1357,-3.7411 3.9708,7.9073 -6.136,3.7409 z"
       style="opacity:1;fill:#000080;fill-opacity:0.59777605;fill-rule:evenodd;stroke:#000000;stroke-width:0.0217661px;stroke-linecap:butt;stroke-linejoin:miter;stroke-opacity:1" />
    <path
       inkscape:connector-curvature="0"
       id="path1997"
       d="m 4702.3273,-1872.8189 -6.1006,7.096 6.1359,-3.7411 6.1007,-7.0958 z"
       style="opacity:1;fill:#000080;fill-opacity:0.59777605;fill-rule:evenodd;stroke:#000000;stroke-width:0.0217661px;stroke-linecap:butt;stroke-linejoin:miter;stroke-opacity:1" />
    <path
       inkscape:connector-curvature="0"
       id="path1999"
       d="m 4696.2267,-1865.7229 6.1359,-3.7411 0.023,5.7647 -6.1359,3.7412 z"
       style="opacity:1;fill:#000080;fill-opacity:0.59777605;fill-rule:evenodd;stroke:#000000;stroke-width:0.0217661px;stroke-linecap:butt;stroke-linejoin:miter;stroke-opacity:1" />
    <path
       inkscape:connector-curvature="0"
       id="path2001"
       d="m 4696.2391,-1859.9581 6.136,-3.7412 6.1383,10.3491 -6.136,3.7411 z"
       style="opacity:1;fill:#000080;fill-opacity:0.59777605;fill-rule:evenodd;stroke:#000000;stroke-width:0.0217661px;stroke-linecap:butt;stroke-linejoin:miter;stroke-opacity:1" />
    <path
       inkscape:connector-curvature="0"
       id="path2003"
       d="m 4702.3774,-1849.6091 6.136,-3.7411 -3.941,5.8042 -6.1359,3.7412 z"
       style="opacity:1;fill:#000080;fill-opacity:0.59777605;fill-rule:evenodd;stroke:#000000;stroke-width:0.0217661px;stroke-linecap:butt;stroke-linejoin:miter;stroke-opacity:1" />
    <path
       inkscape:connector-curvature="0"
       id="path2005"
       d="m 4678.3729,-1837.5392 6.136,-3.7412 3.3161,-6.2857 -4.983,1.5561 z"
       style="opacity:1;fill:#000080;fill-opacity:0.59777605;fill-rule:evenodd;stroke:#000000;stroke-width:0.0217661px;stroke-linecap:butt;stroke-linejoin:miter;stroke-opacity:1" />
    <path
       style="opacity:1;vector-effect:none;fill:#0926ce;fill-opacity:0.96078431;fill-rule:evenodd;stroke:none;stroke-width:0.01016934;stroke-linecap:round;stroke-linejoin:round;stroke-miterlimit:4;stroke-dasharray:none;stroke-dashoffset:0;stroke-opacity:1;paint-order:markers stroke fill"
       d="m 4669.91,-1875.28 a 8.0211943,6.1406667 48.815366 0 0 -2.5738,4.9158 8.0211943,6.1406667 48.815366 0 0 7.1207,8.7495 8.0211943,6.1406667 48.815366 0 0 4.6964,-0.6482 12.102214,9.2649121 48.815367 0 1 -9.2509,-12.7097 12.102214,9.2649121 48.815367 0 1 0,-0.3074 z m 3.579,0.495 a 8.0211943,6.1406667 48.815366 0 0 -0.023,0.6796 8.0211943,6.1406667 48.815366 0 0 0.023,0.4313 8.0211943,6.1406667 48.815366 0 1 -0.023,-0.4313 8.0211943,6.1406667 48.815366 0 1 0.023,-0.6796 z m 1.1506,4.6963 a 8.0211943,6.1406667 48.815366 0 0 1.4078,1.9322 8.0211943,6.1406667 48.815366 0 1 -1.4078,-1.9322 z"
       id="path2165"
       inkscape:connector-curvature="0" />
    <path
       id="path2188"
       d="m 4672.306,-1875.9179 a 8.0211943,6.1406667 48.815366 0 0 -2.3957,0.642 12.102214,9.2649121 48.815367 0 0 0,0.3075 12.102214,9.2649121 48.815367 0 0 9.2508,12.7097 8.0211943,6.1406667 48.815366 0 0 2.0259,-2.9756 8.021194,6.1406667 48.815366 0 1 -0.5863,-0.1178 8.021194,6.1406667 48.815366 0 1 -7.1207,-8.7496 8.021194,6.1406667 48.815366 0 1 0.1917,-1.7228 8.0211943,6.1406667 48.815366 0 0 -1.3571,-0.095 z"
       style="opacity:1;vector-effect:none;fill:#0926ce;fill-opacity:0.96078431;fill-rule:evenodd;stroke:none;stroke-width:0.01534329;stroke-linecap:round;stroke-linejoin:round;stroke-miterlimit:4;stroke-dasharray:none;stroke-dashoffset:0;stroke-opacity:1;paint-order:markers stroke fill"
       inkscape:connector-curvature="0" />
  </g>
</svg>
